/* XPM */
static char *result[] = {
/* columns rows colors chars-per-pixel */
"64 64 225 2 ",
"   c #2B1B3D",
".  c #491D3E",
"X  c #2E1D40",
"o  c #361F41",
"O  c #2E2F4D",
"+  c #352546",
"@  c #382646",
"#  c #372846",
"$  c #382946",
"%  c #3B2B4B",
"&  c #3F314E",
"*  c #3F3250",
"=  c #472747",
"-  c #422C45",
";  c #412D4A",
":  c #41324E",
">  c #433452",
",  c #483753",
"<  c #463855",
"1  c #493A57",
"2  c #4B3D5A",
"3  c #423F65",
"4  c #3F425E",
"5  c #2D4B69",
"6  c #3A4C7A",
"7  c #52435D",
"8  c #66495D",
"9  c #434269",
"0  c #564964",
"q  c #5D526A",
"w  c #424874",
"e  c #435177",
"r  c #684C62",
"t  c #734E63",
"y  c #695368",
"u  c #735466",
"i  c #7A5467",
"p  c #7D5668",
"a  c #7F5969",
"s  c #685D72",
"d  c #6B6175",
"f  c #73687C",
"g  c #885167",
"h  c #815669",
"j  c #815969",
"k  c #8B5B6C",
"l  c #93576A",
"z  c #98556A",
"x  c #945D6D",
"c  c #9B5E6E",
"v  c #A65E6F",
"b  c #9A606F",
"n  c #9D6271",
"m  c #9A6874",
"M  c #A36271",
"N  c #AD6473",
"B  c #A56C76",
"V  c #A96A75",
"C  c #A86E78",
"Z  c #B26574",
"A  c #BB6676",
"S  c #BC6876",
"D  c #B76B78",
"F  c #A6737A",
"G  c #AB747A",
"H  c #A9797E",
"J  c #B5747B",
"K  c #BA757B",
"L  c #B7797E",
"P  c #B9797E",
"I  c #C66777",
"U  c #CA6777",
"Y  c #C16977",
"T  c #C56A78",
"R  c #CB6C7A",
"E  c #D26D7B",
"W  c #DD6D7D",
"Q  c #C5787E",
"!  c #D4717D",
"~  c #DC737E",
"^  c #E26E7E",
"/  c #E3747F",
"(  c #E8727E",
")  c #3D4E81",
"_  c #3A5E88",
"`  c #375996",
"'  c #067690",
"]  c #286992",
"[  c #315FA4",
"{  c #0E74B5",
"}  c #2B63AB",
"|  c #2B6BB1",
" . c #425589",
".. c #425A92",
"X. c #786D81",
"o. c #7E7588",
"O. c #006DC7",
"+. c #006DC9",
"@. c #0171CB",
"#. c #0772C9",
"$. c #0E70CE",
"%. c #1273CA",
"&. c #1B76CD",
"*. c #0073D2",
"=. c #0F74D0",
"-. c #2575CA",
";. c #847A8C",
":. c #877D91",
">. c #A97B81",
",. c #BA7D80",
"<. c #C87D82",
"1. c #DB7681",
"2. c #D47D83",
"3. c #DC7B82",
"4. c #E47580",
"5. c #EB7682",
"6. c #E07E84",
"7. c #ED7883",
"8. c #F37984",
"9. c #02899E",
"0. c #00909E",
"q. c #398B9B",
"w. c #008EAB",
"e. c #0092AE",
"r. c #0082BF",
"t. c #0096B2",
"y. c #00B5BF",
"u. c #008FC1",
"i. c #0085CD",
"p. c #008ACD",
"a. c #0092CE",
"s. c #0099CB",
"d. c #0085D2",
"f. c #008CD2",
"g. c #0096D1",
"h. c #009BD1",
"j. c #0091D9",
"k. c #00A4C3",
"l. c #00ACC6",
"z. c #00ACC8",
"x. c #00A2D5",
"c. c #00ABD6",
"v. c #00ADD8",
"b. c #00B6D5",
"n. c #00BAD7",
"m. c #00B3DA",
"M. c #00BBD9",
"N. c #00CED3",
"B. c #00C1DD",
"V. c #00CADE",
"C. c #00D2D8",
"Z. c #00C5E1",
"A. c #00D7E3",
"S. c #00E5E6",
"D. c #00E9E7",
"F. c #00E5E8",
"G. c #00EBEB",
"H. c #00F3F1",
"J. c #8C8292",
"K. c #968E9C",
"L. c #98929E",
"P. c #AA8487",
"I. c #BA8284",
"U. c #BB8A89",
"Y. c #AE9295",
"T. c #BC9998",
"R. c #9B94A2",
"E. c #9B98A6",
"W. c #A29BA8",
"Q. c #A8A4AD",
"!. c #BCA0A0",
"~. c #ABA9B2",
"^. c #B2AEB7",
"/. c #B6B3BB",
"(. c #B7B5BB",
"). c #B9B6BD",
"_. c #C58284",
"`. c #CB8586",
"'. c #C78888",
"]. c #CB8A89",
"[. c #D78486",
"{. c #D38C8B",
"}. c #DA8D8C",
"|. c #D2918F",
" X c #DC928E",
".X c #C69994",
"XX c #DC9591",
"oX c #DC9C96",
"OX c #E28186",
"+X c #E48689",
"@X c #EA8589",
"#X c #E58B8C",
"$X c #EB8C8D",
"%X c #F18E8E",
"&X c #E7918F",
"*X c #E8938F",
"=X c #E79692",
"-X c #EA9591",
";X c #E79B96",
":X c #EB9994",
">X c #F29592",
",X c #F29C96",
"<X c #F49E98",
"1X c #FA9E98",
"2X c #D2A29B",
"3X c #EBA29A",
"4X c #E9A89E",
"5X c #F5A39B",
"6X c #FDA59C",
"7X c #F4AA9E",
"8X c #FFAA9E",
"9X c #D2ADA6",
"0X c #F5ACA1",
"qX c #F8ADA2",
"wX c #EFB1A7",
"eX c #E5B4A9",
"rX c #F5B4AA",
"tX c #BEBAC2",
"yX c #C2BEC5",
"uX c #C6C2C9",
"iX c #C7C4CA",
"pX c #CFCBD2",
"aX c #D7D6D7",
"sX c #E2DEE3",
"dX c #E1E0E2",
/* pixels */
"j j j u u u u u u u u u u u u u u u u a a u u u u u u u u u u u u u u u u u u u u u a j u u u u u u u u u u u u u u u u u a j j ",
"a p j N Z N N N Z N N N N N N Z Z Z N k a M Z Z N N Z N Z N N N Z N N N N Z Z V Z N k a M Z N N Z N N N N N Z N N N N Z N k a j ",
"j u M 8.4.4./ 4.4.4.4.4.4.4.4.4./ / 7.M j / 4.4.4.4.4.4./ 4./ / / 4.4.4.4.4./ / / 8.Z i n ! E ~ ~ 4.4.4.4.4.4.4.4.4.4.4.7.N u a ",
"j u c 4./ ~ ~ ~ ~ / / ~ ~ ~ ~ ~ ~ / / x p ~ ~ ~ ~ ~ ~ ~ ~ ~ / / ~ ~ / ~ ~ / ~ ~ ~ / N t R ~ ~ ~ ~ / ~ ~ ~ / / ~ ~ ~ ~ 4.4.N u a ",
"j j p c M M M M M n c M M M M M M M n k k b M M M M M M M M n x c v M M M M M M M M k j b M M M n M M M c c c c n M M v c j a j ",
"a i x R R R T U Y r n E R T I I I I I E E I I I I I I I I I U j v I I U T I I I I I E E I I I U I I I R E N y v U U R R R c i j ",
"j u M 5.~ ~ 6.$X~ u Y 7.~ #X#X#X#X+X#X#X+X+X+X#X#X+X+X+X+X#X+XM [.%X#X#X#X#X#X#X#X#X+X#X+X#X+XOX+X+X+X1.~ Y u [.>X6.1.1.7.N u a ",
"a u M 4.~ ! &X5X Xa x Y +X:X-X*X:X;X:X:X;X;X3X;X3X;X;X3X$X&XG k L &X:X:X:X:X;X;X;X:X;X:X3X3X;X}.=X;X=X4.Z k i J XX&XE R 1.N u a ",
"a u M 7./ ~ :X5X&Xa x Y @X>X7X:X7X:X>X:X,X,X7X:X7X4X7X0X:X,X1XB m {.>X:X:X:X5X,X,X,X,X:X3X5X7XwX5X0X5X$X/ Y u B }.%XE E ~ N u p ",
"j u g Y Y T Q [.D 8 v U Y ^.).^./.tX/.tX~.iXQ.uXQ.uX^.).)./.yX^.uXQ.uX~.uX~.).).(.).^.uX~.yXQ.uXpXQ <.Q I z 8 Q XX<.T T R k u j ",
"p x M M M M M H P.G V H Y.s + $ % & % $ % % & # $ % & $ $ % % % # % $ : $ % # & $ % $ % & $ %   ^.Y.P.>.H >.G C G N M M M M x a ",
"u Y 7.4.4./ >X7X7X5X,X5XrXf % & & < : & & > , & & > , & & & > > & & > , & * * , : : : : , & & # L.rXqX5X6X7X<X<X<X-X4.4.4.8.! p ",
"p T 4.~ ~ ! *X=X=X=X=X=X&Xd % & & < : : & > , & & & , ; & : , > & : : , : : : , & & & > > & & + /.&X&X*X=X&X=X=X=X-X! E ! R N h ",
"u T / ~ ~ E &X:X=X=X=X=X=Xf % > : 1 < > > , < > > > 2 > , , 1 < > > , 2 , > & 7 > > > < 1 * * & E.=X=X=X=X=X=X=X:X-X! R ! T M h ",
"u T 7.4.4./ >X5XiXq q q s 7 > < , e r.r.r.r.u.u.r.p.k.z.l.l.z.l.l.z.l.z.l.z.l.n.C.N.N.N.C.N.N.C.q.r q 0 X.5X<X<X5X>X5.4.4.8.~ p ",
"a x N M N M N G sX% # % % , & % - 6 f.f.p.p.x.h.x.h.M.M.M.n.B.B.M.M.M.B.M.M.M.Z.G.G.G.D.G.G.G.H.9.o % $ 7 G J G G V M M M N x a ",
"j u h A Y A P ].uX: & & > < % > ; 6 f.p.i.p.s.s.s.h.m.n.M.M.n.M.M.M.n.n.M.M.b.V.S.S.S.S.D.S.S.G.] . - $ q c 8 N ].Q S Y S k u a ",
"a u M 7.4./ >X8XdX& & & > , ; ; = 6 f.p.p.p.h.h.h.a.v.n.M.n.n.n.n.n.n.n.n.M.b.V.G.D.D.G.F.S.S.H.q.  - - 0 R t }.6X:X/ ~ 7.N u a ",
"j u M ~ tXK.R.L.L.7 : 7 1 _ ] ] _ | s.g.g.g.v.v.m.c.M.M.M.n.n.M.M.M.n.n.M.M.n.V.V.C.V.A.F.F.S.G.y.9.0.0.q.E.W.K.W.aX~ ! / N u a ",
"a u M 4.L.  + + & & & : : { g.f.f.g.k.h.h.h.M.M.M.n.n.b.M.n.n.n.n.n.n.n.n.n.n.n.n.M.b.n.S.D.S.S.D.H.G.G.C.# o + X ).1.~ 4.N u a ",
"j u k E W.# > * < & & : & { f.p.i.a.h.h.h.h.n.M.M.M.M.M.M.M.n.n.M.M.b.M.n.M.M.M.M.M.M.M.F.S.S.S.D.D.S.G.N., : * % ).E R E x u j ",
"a k x n L.+ * % < & & & & { f.i.i.a.h.s.h.h.M.n.M.b.M.M.M.n.n.M.n.M.n.M.M.b.b.M.n.M.n.n.F.D.S.S.S.S.S.G.N., % & % yXM M n x k a ",
"u T 5.~ W.% < < 7 : , , , { p.p.p.p.h.h.h.h.M.M.M.M.M.M.M.M.n.M.M.M.b.M.M.M.M.n.M.M.M.M.A.F.S.S.S.S.S.S.N.7 > > > /.~ ~ ~ 4.T p ",
"p Z ! E R.% > > 7 : : > : } *.+.@.%.@.@.+.@.g.h.h.h.h.h.h.h.h.h.h.h.h.h.h.h.h.h.h.h.h.h.M.n.n.n.n.n.n.B.z.2 : > * iX~ ! ~ ~ E h ",
"p b S E W.% : * < > : : : } +.O.+.%.O.O.O.O.h.h.h.h.h.h.h.h.h.h.s.h.h.h.h.h.h.h.h.h.h.h.M.M.n.n.M.M.M.M.x.> ; : % /.~ ! ~ 1.R h ",
"u E 8.4.K.% * * < : : * , } *.O.O.#.@.O.O.@.g.h.h.g.h.h.h.s.h.h.h.h.h.h.h.h.h.h.h.h.h.h.M.M.n.M.M.M.M.M.l.< > : % iX4.4.4.5.E p ",
"p M Y Z W.% > > 2 > > > , } *.+.@.%.@.@.@.@.h.h.h.h.h.h.h.h.h.h.h.h.h.x.h.h.h.h.h.h.h.h.M.M.M.M.M.M.M.B.z.1 > > * (.Z Z Z S M p ",
"j u p N R.> 2 2 7 2 2 2 7 | &.&.&.-.&.&.&.&.g.g.j.g.x.x.x.x.x.x.h.x.h.x.x.x.x.x.x.x.h.x.M.M.B.B.B.B.M.Z.z.0 2 2 2 iXN Z N g u j ",
"j u M 7.W.@ * * < : * * ; } +.+.@.@.O.O.O.O.i.i.p.i.a.h.h.s.h.h.s.s.h.h.h.h.g.h.h.s.g.h.n.b.n.n.n.n.b.M.z.< ; : % /.5.4.7.N u j ",
"j u M 4.R.@ : : < > : : ; } +.+.O.%.@.O.O.@.p.p.d.p.a.h.h.h.h.h.h.h.h.h.h.h.h.h.h.s.h.h.M.n.M.M.n.n.M.M.z.1 : : % yX~ E 4.N u a ",
"j u M 4.R.X @ + : : * : > } *.*.+.%.+.O.O.O.p.p.p.i.g.h.h.h.h.h.h.h.h.h.h.h.s.h.h.g.a.h.M.b.M.M.B.M.B.Z.z.% + + + ).R R 1.N u a ",
"a u x 4.yXX.o.;.X.< > < , ..} [ [ | =.%.%.%.i.i.i.i.a.x.h.h.x.h.h.h.h.x.h.h.h.x.c.c.c.v.M.M.M.M.k.w.e.e.t.;.X.:.f pX1.1.4.M u a ",
"a h k b M n M F pX> * : , , - ; = w *.@.+.+.%.+.O.+.f.h.h.h.h.h.h.h.h.h.h.h.h.x.B.n.n.B.n.n.M.B.' . = = 0 m j n C M M M n k h a ",
"i Z ~ R R R [.}.sX> & > > < & * : w @.+.+.O.$.+.+.O.f.x.h.h.h.h.h.h.h.h.h.h.h.c.n.n.b.n.n.n.n.B.' . : ; 0 4X&X X|.[.R R R ~ S p ",
"u R / ~ ~ ~ *X:XuX: % * * , % > % w @.+.O.@.+.+.O.O.p.h.s.h.h.h.h.h.h.h.h.h.g.x.n.n.b.n.B.n.n.V.' = & % q :X:X:X:X-X~ E ~ ~ T h ",
"u T / ~ ~ E &X:XdX, * , < 1 > > : w @.O.O.#.%.+.+.O.p.h.h.h.x.h.h.s.h.h.h.s.h.c.B.n.n.B.n.b.n.B.' = < & 0 =X*X*X:X*X! S ~ Y x j ",
"a R 4.~ ~ ~ >X5X:X,X>X:X,Xs * > , 2 9 9 3 9 -.*.#.%.i.p.p.p.a.h.h.h.h.x.h.h.h.c.M.M.M.b.5 5 5 5 Q.:X,X:X,X,X,X,X,X:X/ ~ ~ 7.! a ",
"i N E Y Y S Q '.]. X|.].`.X.% * : , ; % % > | +.O.+.i.p.p.i.a.h.h.h.h.h.h.h.h.x.n.n.M.b.4 = @ @ E._.`.'.'.{.}.].`.<.S S Y R Z p ",
"a p j M v M V G M i k v v d @ : & < : : : > | +.+.+.i.i.p.i.g.h.h.a.h.h.h.h.g.x.M.M.M.M.5 : : + ^.G G N N x i n G N M N M k i a ",
"a u n 5./ / >X6X#Xu A ( %Xs X @ + : > : * > %.*.@.+.i.p.p.p.p.h.h.h.h.h.g.h.g.c.B.Z.Z.M.O @ + X L.<X>X#XE A 8 +X8X>X/ / 5.M u j ",
"j u M 4.~ ~ =X<X=Xu S W +XyXR.~.Q.J.2 2 7 2 ..` ` ` | d.i.i.a.h.h.h.g.v.m.m.m.k.' ' ' w.~.W.^.K.aX=X-X[.c x u }.<X=X~ ~ / N u j ",
"j u M 5.E A +X{.n u S 4.+X;X=X=X:XiX% > > > : - ; = ` *.O.O.@.p.i.i.i.v.B.M.B.t.= = = 2 aX;X;XwX;X;XwX#X^ Y u {.:X=X~ E 4.N u j ",
"a u n 7.4.E %X,X<.u A 5.$X<X<X<X<XyX% % & , 1 & : ; ` *.O.O.#.p.i.p.i.c.M.M.B.t.= * * 1 aX<X<X,X,X1X<X$X5.U t }.8X:X4./ 5.N u j ",
"j i h n N N B J N i h M N G G G G (.@ % % % , & : = [ *.+.+.*.p.p.p.i.v.B.M.V.t.= % @ < aXG G F G G G N v k u c J N M N M j i j ",
"i N R Y A A Q _._.XXoX2X9X9X].].'.pXq y s q 2 : < : ..{ } | | p.i.i.i.s.k.k.l.e.q y s s pX_.`.2X9X2XI.'.2X].{.]._.Q S S S R Z a ",
"u R 7.~ 1./ >X5X,X<X<X;X3X<X<X<X,X,X6XC j ,Xy : > < 1 : * > 6 =.@.@.@. .; : $ ;.<X].m j :X<X<X<X<X<X<X<X,X,X,X,X5X-X4.~ ~ 4.E h ",
"a x A / E S [.$X#X:X=X=XXX=X=X=X=X=X<XB j :X0 % * * > & * % 3 +.O.O.@.) - : $ d ;X2.x a =X:X-X=X-X=X=X=X=X=X=X=X=X=X! ~ ~ ~ R j ",
"i S ~ 1.~ E #X:X=X:X:X=X;X=X=X:X=X=X6XF j <Xq % & * , & * & 6 @.O.O.@.) ; : $ ;.-XqX<.i =X:X=X=X=X;X=X;X:X=X:X:X:X-X~ ~ ~ 4.E h ",
"i A ~ R R E [. X X=X&X XXX X{.[.[.XX#Xx t 3.0 + + @ < : : : 6 @.*.@.*.6 @ # X d  X&XM t 2.XX}.}.}.}.}.XXXXXX=X X X[.R R R ~ A p ",
"a j k n M c M C n k x v n B >.P.P.F B m m H uXW.tXQ.X.> < , 7  .) ) ) E.Q.).Q.uXB C n m B C C B C C B M n b k n G n n M n x j p ",
"a u x ~ / ~ #X,X[.u Z ^ OX:XwXrXwX;X-X5X7X4X:X:X:X:XK.+ & & , : % - @ ~.3XrXrX4X-X:X:X,X:X-X:X:X:X:X;X+XW A t <.<X&X~ ~ 4.n u a ",
"a u M 7.E A #X{.m u N Y [.*X#X+X#X=X=X=X-X=X-X=X=X#XJ.+ & & , > & > % /.=X&X#X&X:X=X-X=X=X=X=X-X-X:X;X#XW R u n B ].1.T ~ N u a ",
"a u M / ! E &X;X[.i c v `.$X;X=X=X4X=X=X=X=X=X=X=X-XJ.  @ @ % $ # + X Q.[.#X#X:X=X=X-X=X-X=X=X=X=X=X;X#XW T u `.-X=X~ ! 4.N u j ",
"a u M 7.4.4.>X6X-Xu I 8.%X7XqX7X7XqX6X,X<X<X<X<X<X<X/.f o.;.o.:.f J.f iX<XqX5XqX<X<X<X<X<X5X<X<X<X<X5X%X5.R u #X8X,X4.4.7.N u j ",
"j u h N Z Z D I.v 8 g N Z J P P J J ,._._.,.,.J P K K J J P D g V `.I.P I.I.I.L P P _._.P L P K K L J D v l 8 M ,.J Z Z N g u j ",
"a n A Z Z Z Z I.T.2X.XU.I.I.P L ,.,.K g t D ,.,.I.U.T.!.T.P U.'.P L L L L L L L P K x r Z I.I.I.T.T.T.U.I..X<.,.P J N Z Z S M p ",
"u R 5./ / / >X5X6XqX0X5X5X<X<X<X5X,X8XV g 6X6X7X5X7XqXqX7X5X5X5X5X1X<X<X<X<X<X<X<X6XP i >X5X5X5XqXqXqX5X5X5X<X5X<X>X4.4.4.8.~ p ",
"u T / ~ ! ~ &X;X=X&X-X-X-X=X-X*X&X=X:XB i B }.@X#X#X=X#X-X=X-X-X=X*X=X=X-X=X=X-X*X5XP p *X:X-X-X*X*X*X-X-X-X=X=X:X-X~ R R Y c a ",
"a T / ~ ~ E =X:X=X-X=X=X=X+X#X+XXXm F k j <.=X;X=X3X3X-X-X=X=X=X=X:X-X*X-X-X=X=X-X5XP i =X:X=X-X=X=X-X=X=X=X=X=X=X=X~ E E R Z h ",
"u S 5.~ ~ ~ $X:X:X,X,X:X:X-X5X:X4X;X>Xn h >X,X:X:X;X>X:X:X:X:X,X:X:X:X:X:X*X:X:X:X5XD r #X,X:X:X:X:X:X:X:X,X<X:X:X*X~ ~ ~ 7.E p ",
"j k c b M M B F B n m B B C B >.H H B k k M H G F C B B B F B n B C F F F P.>.H C V b k M F B B B C B B M m n m C B n M n b k j ",
"j u k R E R [.:X2.t c U 2. XoXeXeXoXXX=X;X=X2XoXoXoX X X X=X*Xc K =XXXoXoXeXeX9XoX X=X;XXXXX X XXXXXXX3.W Z 8 Q =X}.R R E x u j ",
"a u M 7.E R ! G F u Y 4.~ 6.[.4.4.OX6.OXOX[.6.6.6.6.OX2.3.K F b 2.OX6.6.6.3.~ 3.6.OXOX6.OX[.6.6.2.2.2.2.v c u 2.@X3.~ ~ 5.N u a ",
"a u M 7.4.~ W E A u A 7./ / ^ / ^ ^ ^ ^ ^ ^ ^ ^ ^ ^ ^ E ^ E R x U 5.^ ^ ^ ^ ^ / ^ ^ ^ ^ ^ ^ ^ ^ W W W W ~ Z u I 5./ 4./ 7.N u a "
};
