/* XPM */
static char *result[] = {
/* columns rows colors chars-per-pixel */
"64 64 209 2 ",
"   c #5F4B5E",
".  c #5B4F61",
"X  c #5C586A",
"o  c #595F71",
"O  c #634E61",
"+  c #645163",
"@  c #6C5465",
"#  c #655B6B",
"$  c #6C5C6C",
"%  c #725666",
"&  c #795566",
"*  c #745967",
"=  c #795967",
"-  c #755768",
";  c #7A5768",
":  c #765968",
">  c #7B5B6A",
",  c #576779",
"<  c #6B606F",
"1  c #636071",
"2  c #6B6373",
"3  c #64697B",
"4  c #6D6C7B",
"5  c #736271",
"6  c #7D6977",
"7  c #726E7B",
"8  c #6B717E",
"9  c #73717D",
"0  c #7A717D",
"q  c #835767",
"w  c #835C6B",
"e  c #8B5E6D",
"r  c #925E6D",
"t  c #9B5F6E",
"y  c #905F71",
"u  c #A45F6F",
"i  c #85626E",
"p  c #8D616E",
"a  c #92616F",
"s  c #9D606E",
"d  c #846671",
"f  c #8C6571",
"g  c #8D6A73",
"h  c #946270",
"j  c #9C6472",
"k  c #936B74",
"l  c #9A6973",
"z  c #8F7077",
"x  c #947077",
"c  c #9B7176",
"v  c #9E7379",
"b  c #9C797D",
"n  c #A2606F",
"m  c #A36573",
"M  c #AB6575",
"N  c #A46A75",
"B  c #AB6976",
"V  c #A76778",
"C  c #AA6778",
"Z  c #AE6979",
"A  c #B26673",
"S  c #BB6771",
"D  c #B36A76",
"F  c #BA6B76",
"G  c #B56C79",
"H  c #BB6D7B",
"J  c #A3757B",
"K  c #AC747B",
"L  c #A4797D",
"P  c #AA7B7F",
"I  c #B3747B",
"U  c #BD717B",
"Y  c #B2797E",
"T  c #BD7B7E",
"R  c #C26D77",
"E  c #C96E77",
"W  c #C36E79",
"Q  c #D66B7A",
"!  c #C4727D",
"~  c #CB747E",
"^  c #C0797B",
"/  c #CB7A7E",
"(  c #D2757B",
")  c #DA777E",
"_  c #D47A7E",
"`  c #DB797E",
"'  c #536E81",
"]  c #4A788A",
"[  c #4D798B",
"{  c #547384",
"}  c #537B8C",
"|  c #5C7D8D",
" . c #507E90",
".. c #6B7887",
"X. c #697F8E",
"o. c #797481",
"O. c #627F90",
"+. c #AC7D80",
"@. c #B67E81",
"#. c #BC7F82",
"$. c #CE7580",
"%. c #C57C82",
"&. c #CC7D84",
"*. c #D27681",
"=. c #D57982",
"-. c #DC7D82",
";. c #E57C81",
":. c #E87A82",
">. c #F17F84",
",. c #568495",
"<. c #5E8192",
"1. c #6B808F",
"2. c #648695",
"3. c #6B8794",
"4. c #698997",
"5. c #698C9A",
"6. c #778C97",
"7. c #5392A2",
"8. c #689AA7",
"9. c #789AA4",
"0. c #75A5AE",
"q. c #7AA2AB",
"w. c #76A9B1",
"e. c #79B3BA",
"r. c #B68284",
"t. c #BC8686",
"y. c #BF8B87",
"u. c #BD8B89",
"i. c #BD928C",
"p. c #C38385",
"a. c #CB8384",
"s. c #C38987",
"d. c #CB8788",
"f. c #C48B8A",
"g. c #CA8D8C",
"h. c #D48083",
"j. c #D28886",
"k. c #D48589",
"l. c #D38D8C",
"z. c #DB8D8D",
"x. c #C7908C",
"c. c #CD928E",
"v. c #D2928E",
"b. c #DA928E",
"n. c #CB9991",
"m. c #D49591",
"M. c #DC9592",
"N. c #D69993",
"B. c #DC9B95",
"V. c #DF9F98",
"C. c #E48384",
"Z. c #E98E8A",
"A. c #FE8386",
"S. c #FD8688",
"D. c #FF8B8C",
"F. c #E2938D",
"G. c #F4938E",
"H. c #FF958F",
"J. c #E29792",
"K. c #E29D96",
"L. c #EE9A91",
"P. c #E19F98",
"I. c #FE9690",
"U. c #F39F94",
"Y. c #FF9C94",
"T. c #D7A697",
"R. c #DAA295",
"E. c #DFA199",
"W. c #D7AB9C",
"Q. c #DCAB9B",
"!. c #E2A39A",
"~. c #E4AB9A",
"^. c #EDA99A",
"/. c #F8A397",
"(. c #FFA599",
"). c #F5AA9A",
"_. c #FFAB9D",
"`. c #E4B19F",
"'. c #F1B29E",
"]. c #FEB29F",
"[. c #D4B3A5",
"{. c #D4B9AB",
"}. c #EFB5A1",
"|. c #F0B6A1",
" X c #FFB3A2",
".X c #F1B9A2",
"XX c #FFBBA5",
"oX c #CFC1B4",
"OX c #ECC5AE",
"+X c #FEC1A7",
"@X c #FEC5AA",
"#X c #FFCAAD",
"$X c #E9C9B4",
"%X c #E8CAB6",
"&X c #FFCEB0",
"*X c #E5D2BE",
"=X c #FFD2B3",
"-X c #FFD9B7",
";X c #F6D5BC",
":X c #FDD6B9",
">X c #F4D8BF",
",X c #FFDBBB",
"<X c #E3D9C4",
"1X c #FFDFC1",
"2X c #EFE6CD",
"3X c #FFE3C4",
"4X c #F5E4C9",
"5X c #FFE6C8",
"6X c #FFF0CF",
/* pixels */
": : : @ @ @ @ @ @ @ @ @ @ @ @ @ @ @ @ : : @ @ @ @ @ @ @ @ @ @ @ @ @ % @ @ @ @ @ @ @ % > % @ @ @ @ @ @ @ @ @ @ @ @ @ @ @ @ * : : ",
": % : j j j j l j j j l j j j l j j j > : a m j j l j j j l j j j l j j l j j j m j > % p l j j j j j l j j j j j l l m j > % : ",
": @ a =.$.$.~ $.$.~ $.$.$.$.~ ~ ~ ~ *.a : ~ ~ ~ ~ ~ $.~ ~ ~ ~ ~ ~ ~ ~ ~ ~ $.~ ~ ~ _ m @ p H H ! U $.$.$.$.~ $.~ ~ $.$.$.=.j @ : ",
": @ e $.! ! ! ! ! ~ ! ! ! ! ! ! U : : : : : : : : : : : : : = : : : = : : * * * : : : : : : : G ! ! ! ! ! ! ~ ~ ! ! ! ! $.h @ : ",
": : - e h h r h a e e a a a p % > Q.j.> p.R.T.B.[.[.W.oX{.R.a.: a.R.T.R.{.[.W.oXoX{.R.a.: a.Q.i @ e h f y e i e a y h h y : : : ",
": % w G G G D D M @ e H N q r d.T.-X+X= ].-X=X=X1X1X-X5X3X&XXX* XX=X-X&X1X,X-X5X3X1X&X+X: XX-XQ.d.t q m H h + h D G G G G e % : ",
": @ a *.! ! &.l.%.@ D H j u.[.,X=X#X&X: XX=X&X#X#X#X#X#X#X&X#X: #X#X&X#X#X#X#X#X#X#X&X#X: @X#X=X,X{.i.j C B @ %.M.&.! ! $.j @ * ",
": @ a ~ ! H v.E.c.@ ; e K.5X6X1X#X&X+X: '.&X&X&X&X=X&X&X&X&XXX* ].&X&X&X&X=X&X&X&X=X&XXX:  X=X#X,X6X5X^.r - % J c.l.H G ! j @ : ",
"* @ a *.! ! m.E.c.* w !.3X1X@X#X+XXXY.: G.XXXXXXXXXXXXXXXXXXI.: Y.XXXXXXXXXXXXXXXXXX XY.: G. XXX#X+X,X5X).p @ v f.l.H H ! j @ : ",
": @ ; C Z M @.r.N   z.5X,X@X#XXXI.S.A.; ~ ) ) =.) ) ) =.) ` =.: _ ` ) ) ) ) ) ) ) ) ) =.* >.S.I.XX#X#X,X5XL.. K c.@.B B G > @ - ",
"% w h h h h h +.+.> ~.=X#X#XXXH.S.;.*.> % - - % - - % % - @ @ : # @ @ @ - - - - - - - % : Q C.S.H. X#X#X&X}.q k v j h h h h w : ",
"@ Z *.~ ~ ~ z.~.* M.#X#X#X+XY.S.;.+ % : j W $.! ! W $.! W m - : ] $ % t H $.! ! ! ! W V : * . =.S.I.XX&X#X#XU.% V.m.$.~ ~ =.! - ",
"% K ~ ! ! H v.m.> `.=X#X&X].A.C.@ : : j H ! U ! W U U %.! H % : [ * @ B ! ! W U ! U H U V > : + _ S._.=X#X&X.X- m.m.H G H G h - ",
"% Z ~ U ! ! v.> F.@X#X&X+X/._ @ : - % - : : : ; : > - % : : : : } 2 ; : : : > : : : > ; : - - - @ ~ Y.XX&X#X@XL.> m.U G U G h - ",
"@ G ( $.~ ~ b.: '.#X#X=X].D.` + : j H G G G G G G G G G G y - : ] $ : % % @ % @ % % @ % % @ % % + / D._.=X#X&XXX: M.$.~ $.=.! % ",
"% w j h h a l : .X=X#X=X X( > > j U ! / l.l.g.v.l.l.l.k./ G % - 2.: % m U t.s.s.s.s.s.u.u.T G m > = ! _.:X&X&X+X: l h h h j e * ",
": @ - V C M K : /.=X,X&X(./ . w ~ ~ ! b.!.B.R.K.B.B.P.B.b.W % - 3.5 + D z.P.P.K.!.K.B.!.!.K.$.~ a . U (.#X-X=X].* I C B N > @ : ",
": @ h *.~ ! M.: a v b c l p % = a a p g g f p g g g g g g q @ - } 5 % q f g g g g g g g f g h t w @ e l c b b k : M.~ ! _ j @ : ",
": @ h U G Z s.: K y.i.t.T s % & @ & j J J J J J J v J J L J t > O.$ r J J J J v J J J J J m & @ & % a ^ t.i.u.K : v.! U ~ j @ : ",
": @ h $.! U c.: ).=X-X=X_.( X 3 7 2 N M.E.B.B.B.B.B.B.B.B.B.a.; | $ T J.B.B.B.B.B.M.B.B.B.Z 2 4 3 X R (.#X-X-X].: v.! ! ~ j + : ",
": @ > H H H p.: OX:X#X=X XE o 7.8.,.@ c.m.m.m.m.m.m.m.m.m.N.m.- | # f.B.m.m.m.m.N.m.m.m.m.% } 8.7., S _.-X#X=X=X: s.G H U w @ : ",
": > e p a p a : <X1X@X=X XE # 1.6...e v.m.m.m.v.m.m.m.m.m.m.v.: 5.$ u.B.m.m.m.m.v.m.N.c.m.h ..6.3.1 F (.&X#X=X2X: a r a p e > : ",
"@ Z $.! ! ! l.: %X,X#X=X XE @ e e a &.m.N.N.N.N.m.N.N.m.m.N.g.; 5.< #.M.m.N.N.N.N.M.N.m.N.h.j i e @ F _.&X#X-X;X: l.! ! ! ~ G % ",
"% m U W H G g.: }.&X#X=X XW : %.v.c.x.g.g.g.x.f.g.g.g.g.g.f.D - q.5 n %.c.f.f.g.f.f.f.f.f.x.c.c./ q D _.&X&X&X@X: v.! U ! ! H - ",
"% w C U H M d.: <X,X#X=X].E + % % @ % % % % % % @ % % % % % % - 9.6 - ; : : : : - : : : : : * : = + F (.=X#X=X4X: v.W U ! ! G - ",
"@ U -.~ ~ $.M.: '.&X#X=X X! @ * * : : : : - - - : : - - : : : - q.2 M l.N.m.m.m.m.v.m.m.m.m.m.N.a.w D _.=X#X#X+X* M.~ ~ ~ *.H - ",
"% a C j m j N : }.&X#X=X XE % V U H U U H H H H U H H U H H j : 4.# p.N.m.m.m.m.m.m.m.m.m.m.m.m.B.g A _.=X#X&X+X* J m m m B h % ",
": @ - j j l N : .X=X#X=X XW > ! ! U ! ! %.W W H ! ! ! ! ! ! H - 9.5 s.B.m.m.m.m.m.m.m.m.m.m.m.m.V.x B _.=X#X#X@X* J j j j : @ : ",
": @ a =.~ ~ M.- /.=X-X#X(./ % H ~ ! %.! ! ~ $.%.! ! $.! $.U C - 5.$ G M.B.B.B.B.B.B.B.B.B.B.B.B.z.w H (.@X-X=X].- M.$.$.*.j @ * ",
": @ a $.! W v.: i k x g a i : > q q w q q q w q q q w q q > > - 5.5 q e f d f i d i i f f i f d w ; w a k x x p : m.U H $.j @ : ",
": @ a ~ U ! m.- I c.n.x./ N = B r.+.+.+.+.+.+.+.+.+.+.+.+.+.t - | $ r J +.P P P +.+.L +.P P +.+.N = j / f.n.c.T : d.G G $.j @ * ",
": @ e ! ! ! l.- ).=X-X=X_.E > b.B.N.B.B.B.B.B.B.B.B.B.B.B.V.l.; ] # %.K.B.B.B.B.B.B.B.B.B.B.B.V.F.p G _.=X-X=X X: l.! W $.f @ * ",
": * q f a a a = $X=X#X=X XR d !.m.v.m.m.m.m.m.m.m.m.m.m.m.&.K % 3 @ l p.m.N.v.m.m.m.m.m.m.m.m.m.E.z A _.=X#X=X;X- h r h f q - : ",
"% m ! G G D p.: <X,X#X=X XR i b.B.B.N.B.m.B.B.B.N.B.B.B.d.t ..o.; 0 8 p $.B.N.B.B.B.N.B.B.N.B.B.N.f D _.=X#X=X2X: t.G G G ! C % ",
"@ G ~ ! ! ! v.: $X=X#X=X XR % G t.r.p.t.r.t.r.t.r.t.t.r.M $ w.w.: 9.e.4 r r.r.r.r.r.r.r.r.r.r.u.Z ; D (.=X#X=X>X: N.! H ! ! G * ",
"@ Z ! ! ! H v.: .X:X#X=X].! + @ @ @ O @ @ @ @ @ @ @ + @ % * 5.q.> X.0.0 & > i > > i > w > w > > > @ F _.=X#X&X@X: v.H M ! C w : ",
"$ D $.! ! ! M.: *X,X#X=X].! @ = ; w > > w > > w ; q w > > 5 5.q.= X.0.7 n z.B.B.B.N.B.M.M.B.B.B.k.e A _.=X#X=X4X: N.~ ! ! ~ U : ",
"% j H B B C Y = }.&X#X=X].~ + > Z E %.$.! ! ! ! ! ! ~ H h - 5.9.= X.0.4 I K.N.v.m.m.m.m.m.m.m.m.E.g M _.=X#X&XXX= Y C C Z U j % ",
": @ - h h a h : }.&X#X=X XE + i $.W H W ! H ! ! U ! ! ! G $ 4.q.* 1.0.4 Y B.v.N.m.m.m.m.m.m.m.m.B.g D _.=X#X#X+X: j r h h : % : ",
": @ y *.~ ~ M.: |.=X#X=X XW + q C ! H $.! ! ! ! ! ! ~ H j $ 5.q.* 1.0.7 u l.B.N.N.B.M.N.N.N.N.B.k.e D _.=X#X=X+X& N.$.~ =.h @ : ",
": @ a ~ ! ! m.: /.#X-X#X(.( + % % ; ; ; ; ; ; ; & ; & - - : 5.q.> 1.w.0 & w p i i i i i d i w d i @ R (.#X-X=X(.: m.U ! ~ j @ : ",
": @ a ~ H M d.: i d d d p > w I u.t.t.t.t.t.u.t.t.y.u.#.m $ 5.q.* 1.0.0 % @ + @ + @ @ @ @ + @ @ @ : > i p d f i - m.! ! ~ j @ : ",
": @ p *.$.W z.: T B.T.v.h.N i b.B.N.B.N.B.N.M.B.N.N.B.M.#.$ 5.q.* 1.0.0 q m Z C B M B B M M C t > @ m h.c.T.N.p.: N.~ ~ *.j @ : ",
": % - h h h l : ).=X-X&X].E i !.m.m.v.m.m.v.m.m.m.m.m.M.f.$ 5.q.* 1.0.7 j ! ! ~ ! / ! E %.W $.%.p + R (.&X-X=X X: j a s a : @ : ",
"% j G C M V K : $X:X#X=X XW w z.B.B.B.B.B.B.B.B.B.B.B.M.#.- 5.q.> 1.0.9 s ! ~ ! ! ~ ~ ! ~ ! ! W e + F _.=X#X:X=X: Y M N C U j - ",
"@ G =.! $.! N.: <X,X#X=X XW % j +.J J +.J J J J L J L J r 5 5.q.5 1.0.0 & r s a j a a j s j j e % O F _.&X#X:X2X: N.~ ! ! ~ H : ",
"% w N ~ H M a.- $X:X#X&X XW % f g k k f f k f f k f f k w $ <.w.= | w.9 q g g k k g k g g x x c b > D _.=X#X=X;X: v.! U ! ! G - ",
"% C ! ! ! H l.: }.:X#X:X XE - W f.f.M.B.B.B.B.B.B.B.B.M.&.> ' 6.5 , 5.6 U J.E.B.B.B.B.B.B.M.f.f.c.d A _.=X#X&X#X= v.! ! ! ~ H - ",
"% m ! I G G p.: *X,X#X&X XE X $ 2 $ D m.m.m.m.m.m.m.m.m.m.! q % ] * & G v.m.m.m.m.m.m.m.m.G $ $ $ + F (.=X&X=X>X* y.G G H ! V * ",
": : q p h h h : '.&X#X=X XE o 8.0.2.% c.m.m.c.m.m.m.m.m.m.m.h.: } # ! M.m.m.m.m.m.m.m.m.N.> O.0.8.3 F _.&X#X&X+X: a e h p q : * ",
"* @ w $.! W l.: }.&X#X=X XE X  .2.{ : c.m.m.m.m.m.m.c.m.m.m.m.: 4.$ t.B.m.m.m.m.v.m.m.m.m.w { 2.,.o F (.=X&X&X+X: l.! ! $.p @ : ",
"* @ a $.H M d.: }.&X&X=X X! @ : : > ! m.m.m.m.m.m.m.m.N.m.m.H : 2.$ u.B.m.m.m.m.m.m.m.m.m.$.w : : + F _.&X#X&X+X: y.U G ! l @ : ",
"* @ a ~ ! H l.: L.#X=X+X(.( + % % % : > * > > : : > * > > > : ; 5.5 : : > - > : : : : : ; - % @ @ + ! (.+X-X&X(.* m.! H $.j @ * ",
"* @ h *.$.~ N.: > w 6 w > = > m G G G G G G G G G G G G G f % : [ $ u p.f.s.f.f.f.f.f.g.f.f.f.g.^ e * > > i d > : M.$.$.*.j @ * ",
"> @ % j j m N : a.~.`.K.C.M w ! ! T ! ! ! ! ! ! %.U ! ! ! G % - 2.# %.B.M.N.m.N.m.N.N.N.m.m.B.N.M.k m C.J.`.~.j.: J j m j ; @ : ",
"* f C j j j N : ).=X:X&X XE & #.$.$.! ~ ! $.~ ~ ! $.$.! $.V % * } # f.B.m.m.m.m.m.m.m.m.m.m.m.m.!.z A (.&X=X&X].: N j m j N h % ",
"@ G *.~ ~ ~ M.: $X=X#X=X X! @ e y t h y h h y h h t h h h w : & 2.$ U M.B.B.B.B.B.B.K.B.K.B.K.V.z.e M  X=X#X&X>X: M.$.~ $.=.! * ",
"% D ! ! ! H v.: <X1X#X=X XE + @ + + + + + + + + O + + + + @ @ - <.* r J +.L J J J J J J L J J J m % F _.=X#X:X2X: v.! G G C i : ",
"@ Z ~ ! ! H v.: $X-X#X=X XW @ s v v v J J J v v v v J v v v r : ] $ - @ + + + + + + O O @ + + + @ @ F _.=X#X=X;X: v.! H H H V - ",
"% B $.! ! ! l.: ^.=X=X#X_.! > z.P.B.B.B.B.B.B.B.B.B.B.B.B.B.&.: [ $ - e t f r y y y f e e h e h > + F (.#X=X&X X: l.! ! ! *.F - ",
"% > i h h y h : Z.XX+X].H.E i M.N.N.N.N.N.N.B.N.N.N.N.B.N.B.l.- [ 2 @ C $.~ ~ $.%.$.$.$.$.$.$.$.f + H H._.+XXXI.: k a a p i q : ",
"* @ > G H G s.: _ ;.:.C.:.M : U g.f.s.f.f.f.p.f.f.f.f.p.f.s.M ; { * - e C G G G G G G G G G G m > @ u ` C.;.;.-.= f.G H H w @ : ",
": @ h =.H G U : @ @ @ @ @ % : % % @ @ % % % % @ @ % % @ % @ % : & : : * % % @ % % % % % % % % % ; : ; @ @ @ @ % : %.! ! *.l @ : ",
": @ r *.$.! ! : : : : : : : : : : - - - - % : - - : : - : : : : : : : : : : : : : : - * * % : : : : : : : : - : : E ~ ~ *.h @ : "
};
