/* XPM */
static char *result[] = {
/* columns rows colors chars-per-pixel */
"64 64 154 2 ",
"   c #5E4B5D",
".  c #62455A",
"X  c #614B5E",
"o  c #644D60",
"O  c #694E62",
"+  c #665263",
"@  c #6B5565",
"#  c #725666",
"$  c #7C5266",
"%  c #745967",
"&  c #755768",
"*  c #7B5669",
"=  c #765968",
"-  c #7C5B6A",
";  c #825669",
":  c #8E576A",
">  c #845C6C",
",  c #8B5E6D",
"<  c #905F6E",
"1  c #9C5E6F",
"2  c #965E70",
"3  c #82606D",
"4  c #8D616F",
"5  c #92616F",
"6  c #98616F",
"7  c #866672",
"8  c #8D6471",
"9  c #8E6973",
"0  c #946371",
"q  c #9C6572",
"w  c #966C75",
"e  c #9A6C76",
"r  c #966E79",
"t  c #977077",
"y  c #997077",
"u  c #97727A",
"i  c #9C7379",
"p  c #9C7A7E",
"a  c #A36573",
"s  c #AA6675",
"d  c #A36B76",
"f  c #AB6976",
"g  c #A26E78",
"h  c #AE6B79",
"j  c #B16776",
"k  c #BE6576",
"l  c #B36977",
"z  c #B86977",
"x  c #B46C79",
"c  c #BB6D7A",
"v  c #A4757A",
"b  c #AB747B",
"n  c #A7797D",
"m  c #A97A7E",
"M  c #B2767D",
"N  c #BD717C",
"B  c #B3797E",
"V  c #C46D7B",
"C  c #C86E7C",
"Z  c #C4727D",
"A  c #CB747F",
"S  c #C7797F",
"D  c #D0717E",
"F  c #9C7C81",
"G  c #A07F82",
"H  c #AC7D80",
"J  c #B57E81",
"K  c #BC7D82",
"L  c #CE7580",
"P  c #C47C82",
"I  c #CA7E83",
"U  c #D27681",
"Y  c #DD7683",
"T  c #D67882",
"R  c #D97983",
"E  c #9D8186",
"W  c #9E8589",
"Q  c #A38184",
"!  c #AB8384",
"~  c #A38689",
"^  c #A28A8C",
"/  c #AD8C8B",
"(  c #B58384",
")  c #BA8585",
"_  c #BB8887",
"`  c #B68788",
"'  c #B78A8A",
"]  c #BB8B8A",
"[  c #B4908D",
"{  c #BB918E",
"}  c #A59194",
"|  c #AE9997",
" . c #B19493",
".. c #BB9491",
"X. c #BC9B96",
"o. c #B29C9C",
"O. c #BE9C98",
"+. c #BFA19D",
"@. c #BFA5A2",
"#. c #C38485",
"$. c #CC8386",
"%. c #C58887",
"&. c #CE8887",
"*. c #C68688",
"=. c #CC8689",
"-. c #C58C8B",
";. c #CC8B8B",
":. c #D18387",
">. c #D38589",
",. c #D28D8C",
"<. c #D98D8D",
"1. c #C4918F",
"2. c #CB918E",
"3. c #D3928E",
"4. c #DA918F",
"5. c #C79390",
"6. c #CC9591",
"7. c #C69D96",
"8. c #CB9A94",
"9. c #C09F99",
"0. c #CD9F99",
"q. c #D49591",
"w. c #DB9592",
"e. c #D69A94",
"r. c #DC9B95",
"t. c #D79F98",
"y. c #DC9E98",
"u. c #E09693",
"i. c #E09D97",
"p. c #E19F98",
"a. c #EC9F99",
"s. c #CEA29A",
"d. c #D5A29A",
"f. c #DBA39A",
"g. c #D2A99F",
"h. c #DCAA9F",
"j. c #E2A29A",
"k. c #EBA49B",
"l. c #E4A99F",
"z. c #ECA89D",
"x. c #F2A99F",
"c. c #C2ABA6",
"v. c #CEAAA3",
"b. c #C2AEA8",
"n. c #DDACA2",
"m. c #D2B3AB",
"M. c #DFB3A9",
"N. c #E4ACA2",
"B. c #ECACA1",
"V. c #E6B1A6",
"C. c #E4B6AC",
"Z. c #E8B6AC",
"A. c #E8B8AE",
"S. c #E3BDB2",
/* pixels */
"= = = @ @ @ @ @ @ @ @ @ @ @ @ @ @ @ @ = = @ @ @ @ @ @ @ @ @ @ @ @ @ @ @ @ @ @ @ @ @ # = # @ @ @ @ @ @ @ @ @ @ @ @ @ @ @ @ # = = ",
"= # = q a q q q q q q q q q q q q q q = = 0 q q q q q q q q q q q q q q q q q q q q > # < e q q q q q q q 0 q q q q q q q - = = ",
"= @ 0 T A A A A A A A A A A A A A A U 5 = L A L L A L L L A A A S A A A A A L S L T a @ 8 c c N V L P L L A A L L L A A T q @ = ",
"= @ , A A Z Z Z Z S Z Z Z Z Z S Z A A , = Z Z Z Z Z Z Z Z Z Z A A Z Z Z Z Z A Z Z L 0 @ x A L V Z Z Z Z Z C A P Z Z Z A L 0 @ = ",
"= = & , 0 0 5 5 5 4 4 5 5 5 5 5 5 5 4 - - , 6 5 4 5 5 5 5 5 4 , , 6 5 5 5 5 4 5 5 5 - = > 6 5 5 8 < 0 < 0 , , , , 0 2 0 8 & = = ",
"= # > x x x l l s @ , c x l l l j j j z z l s l l l l l j j l = 0 l j j l l j l j j z k j j f j j j j x c 0 + 0 z h x x x , # = ",
"= @ 0 L Z Z I <.P + l D P ,.;.,.,.;.:.;.,.$.:.;.=.$.>.$.=.;.$.5 I <.,.=.>.;.=.;.,.;.;.,.=.>.=.$.=.$.=.Z Z f @ P w.I Z Z U q @ = ",
"= @ 5 A Z c ,.f.2.# > s $.q.3.,.q.t.q.r.t.q.d.e.d.e.q.d.,.q.i ; n 2.q.e.e.e.q.r.q.q.r.q.d.f.y.;.q.e.,.I s = # v 5.,.c c N q @ = ",
"= @ 0 U Z A 4.j.3.% , s :.r.h.4.f.w.w.t.w.w.j.r.h.l.f.l.r.r.i.w 9 -.w.e.r.r.r.w.r.r.r.4.f.f.j.N.f.l.j.,.A s @ r -.<.c c Z q @ = ",
"= @ = f f f B _ f   : j s K { _ ) ) ) -.2._ J ) J K B B K #.B ; b -.) ) ) ) ) ) ( ( ] 2.) ( J J J B B M s :   M ;.J f l l - @ = ",
"# > 0 5 5 6 6 p E i e p } ^ i p p i e ; # 0 i p v p ~ } ^ i E i e i i e i i i i i d > # 5 i i p n } ~ p i G i e i 0 0 0 0 0 > = ",
"@ l U A A A 4.l.l.i.i.j.A.C.j.l.l.i.k.0 - u.k.z.l.l.V.A.V.f.l.j.r.r.i.i.i.i.r.r.i.k.d @ 4.j.j.j.l.A.N.j.j.l.i.r.j.w.A A L T Z # ",
"@ h A Z N Z 3.q.3.q.q.q.,.3.q.q.q.r.z.i + #.( J &.&.&.&.3.q.3.q.q.q.q.q.q.q.q.q.3.j.m # 3.q.q.3.3.;.3.3.4.2.q.q.q.q.N z c l 0 = ",
"# x A N Z Z 2.q.q.q.q.3.q.&.;.&.] w i > # ) ( ..3.3.;.3.q.q.3.q.q.q.q.q.q.q.q.q.3.j.m # q.w.q.q.q.q.q.q.q.q.q.q.q.q.c x N h 0 = ",
"@ x U A A A 4.j.f.i.j.r.i.w.j.i.n.2.3.4 > u.z.B.j.k.j.r.i.i.i.r.i.i.i.i.i.i.i.r.i.k.b @ q.j.r.i.i.i.r.j.f.i.i.j.j.w.L A L R C # ",
"= 3 q 5 5 6 q i i v v i i v i i v n v - @ q i i i i i i i i i v i i i i i i i v i v ; @ 0 v i i i i i i i v v i i q 2 0 0 0 8 # ",
"= @ & s f f b _ d X ; s f ( J ..] ' ` _ v.b.X.] ) ( ( ( ( ] *.; q ) ` ] ' ..+.s.....) -.( ( ( ( ( ( ( h a :   a ) B s f f = @ = ",
"= @ 5 T A Z w.z.q.@ l U ,.y.r.r.r.y.r.r.i.y.y.w.$.<.r.<.r.) m 8 ;.p.y.r.t.y.y.f.r.r.r.r.r.r.r.r.u.r.f.4.D c + -.j.r.A Z L q @ = ",
"= @ 0 Z x x %.u 0 # , l $.q.2.q.q.q.q.q.q.q.q.3.$.;.3.t.f.] m 3 -.t.q.q.q.q.3.q.q.q.q.q.q.q.q.,.;.<.3.&.j 6 @ %.r.3.Z N A q @ = ",
"= + 5 A Z c 2.2.) # > a T e.q.e.y.q.q.q.q.w.q.q.t.q.w.f.q.j.z.v ] r.q.w.q.q.q.r.q.q.q.w.q.q.t.2.$.q.e.) , 4 @ -.j.3.Z Z A q @ = ",
"= @ > c c c #.q.B + < k N 2.8.8.8.-.-.q.q.5.;.2.-.-.-.-.-.2.;., M 2.-.2.-.;.-.-.2.2.2.q.2.-.6.6.8.2.8.I k q   M 3.*.c c N > @ = ",
"= - > , 0 , 0 y w 4 8 p p w w i i r e > 3 0 r w u p p i r i w 4 0 r r e r e e t e r 3 > 0 u w i E F w e t 4 7 w t 5 4 4 4 > - = ",
"@ h U Z Z C ;.e.e.r.r.n.M.q.3.h.f.q.w.0 # <.e.q.f.h.h.h.3.f.e.r.q.q.3.q.q.q.3.q.r.w.d + &.q.4.d.C.M.3.d.d.r.r.q.q.3.Z Z Z L l # ",
"% a N N c x ;.q.3.q.3.3.3.q.q.3.3.q.j.e = e.q.q.3.3.3.3.3.3.q.q.q.q.,.3.;.#.=.&.q.n > = q.r.q.3.;.3.q.3.3.q.3.q.q.3.Z N Z Z c = ",
"# 3 f c c s $.;.,.q.q.q.3.q.q.3.q.q.j.r - q.3.3.q.3.q.q.q.q.q.q.q.q.3.t.t.d.f.3.q.w.i # q.q.3.q.q.3.3.q.q.3.3.q.q.q.Z Z N Z N % ",
"@ c R A A A r.j.r.i.j.r.r.j.j.r.r.i.k.q - i.j.i.j.r.i.f.j.r.r.r.r.j.i.r.w.i.w.j.i.z.b # w.j.i.f.f.r.j.r.r.j.r.i.j.r.A A A D c # ",
"# 0 f a q a v n m ) ( m m m m n v b b $ O d m m m m m m m m m ( H m m n m m m m m B > X a H m m m m m ! ! ( ( ! n v 1 q a f 0 # ",
"= @ # q a q e H q o * 6 q v ! / | o.| ! ( / ! n v n m m n n B $ 5 m m ! ! / / ! v n m J n n n n m m m a 6 : X 6 m v q a q = @ = ",
"= @ 5 U A A 4.k.3.@ s U >.j.j.j.N.N.N.f.i.k.l.f.j.4.<.4.w.f.%.8 ;.j.j.j.j.j.l.j.f.i.i.j.i.j.r.4.4.4.w.>.c q + -.z.w.L L U q @ = ",
"= @ 6 A Z N 3.r.2.@ s C =.r.q.3.3.3.3.q.q.3.3.q.r.q.&.d.3.3.v 3 -.r.3.3.3.3.3.3.q.3.3.q.3.q.,.3.;.t.3.U s > # #.t.3.Z c A q @ = ",
"= @ 5 L Z V 2.r.2.@ f V =.q.q.3.q.3.3.3.q.3.3.q.q.e.d.f.q.3.k.i #.r.q.q.q.q.q.q.3.3.q.3.q.q.3.d.d.f.f.;.A l # 7 ) ;.l x A q + = ",
"= @ , Z Z Z <.f.=.+ q V I r.r.r.r.r.r.r.t.r.r.q.q.r.4.3.r.r.w.5 ) f.q.r.r.q.r.e.r.r.t.r.r.r.r.q.4.4.r.$.C s X J r.<.Z Z A 8 @ = ",
"= % ; 4 5 5 5 i 4 - 7 u u p p i t i r 0 8 w r t t t p F p u u > 4 w t t w t w t u r 5 w w r i u i F p w 0 7 - 4 i 5 0 5 4 - & = ",
"@ a Z x l l #.-.2.q.g.m.m.v.7.1.5.%.;.> O #.-.6.5.8.v.m.v.-.0.e.2.%.-.-.-.-.-.-.;.;.5 X B -.1.6.7.m.v.8.7.d.4.1.2.#.x x x Z f & ",
"@ x A Z Z Z q.t.q.q.q.3.3.3.q.r.q.r.x.i = r.w.q.q.q.3.4.3.q.q.w.3.r.q.r.r.q.q.r.j.z.H # r.r.q.q.q.3.q.q.q.q.q.r.q.q.Z c Z Z x # ",
"@ x Z Z N Z 3.q.q.q.q.q.q.3.,.,.,.] m > 3 r.q.q.q.q.q.q.q.q.q.q.q.q.3.q.-.;.3.&.b ) 4 = 3.q.3.q.q.q.q.q.q.q.q.q.q.3.N f Z f > = ",
"@ x A Z Z Z 4.r.r.r.r.r.r.3.w.3.j.] n 3 3 i.u.r.t.r.r.r.e.r.r.e.w.r.r.r.>.q.i.e.! b 9 = e.r.r.w.e.w.e.w.r.r.r.w.t.w.L Z A L N = ",
"% q N h h s B _ _ 2.-.` _ ) ] ) ) %.;.; X M _ ) ( ) ( ( ( ( ) %._ ( ) ( ) _ ( ) -.;.5   M ) ) ( ) ) ( _ _ -.-._ ) B f s f x a # ",
"= # & 5 5 6 5 v < # - 5 6 e p ^ } Q p p i i i i i i i i i v g * 4 i p p p Q ^ } ~ G i i e i i i i i i q 6 > @ , v 0 5 0 0 = @ = ",
"= @ , L A A 4.j.,.@ a A >.i.j.C.Z.l.j.j.r.i.i.i.4.w.r.4.r.q.,.0 *.j.j.j.j.l.V.Z.N.j.i.i.i.r.w.4.w.u.w.,.c s + *.k.w.A A U q @ = ",
"= @ 5 A Z Z q.y.4.@ s C ;.e.3.3.,.3.q.q.q.q.q.;.$.;.q.q.y.! 0 3 -.r.3.3.3.q.3.,.3.3.q.q.q.t.&.;.t.3.q.) , > @ 1.r.q.Z N A q @ - ",
"= @ 6 A c s >._ 8 @ f C ;.q.q.q.q.q.q.q.q.q.q.q.f.q.3.d.t.f.k.e %.r.q.q.q.q.q.q.3.q.q.q.3.e.t.h.t.t.n.,.A f + -.r.q.Z N A q @ = ",
"= @ 8 U A Z <.r.K @ s A >.j.i.i.r.i.i.r.j.u.r.p.i.i.j.w.r.u.k.e #.k.r.j.i.i.i.r.i.i.r.f.i.u.i.w.u.i.r.<.D l O $.k.w.A A D 6 @ = ",
"= # & 0 0 0 q n 0 @ = 4 q i i i i i i v v i i i i i i v i i e $ 4 i i i i i i i i i i v i i i i i i i q 6 ; @ 4 v e 5 6 0 - @ = ",
"# 0 x f f f M ( ) 1.7.s.b.c.] ] ) ( K * o M ) J ] 9.c...( { ` #.) ( ) ( ( _ ` ) ( ;.5   b ( ) +.b.s.( ' O.-.#._ ( B f f f N q # ",
"@ N U Z Z Z w.f.r.t.r.i.r.r.t.r.r.r.k.e = p.r.r.r.f.r.r.w.r.r.t.w.t.q.4.4.:.>.<.i.) 4 - r.r.r.f.r.y.e.t.f.r.t.r.t.w.Z Z Z A c = ",
"% > a A c s $.;.,.q.q.q.q.q.q.q.q.q.p.r = w.q.q.q.q.q.q.q.q.3.q.q.q.,.q.q.q.6.;.q.) 4 = 3.q.q.q.q.q.q.q.q.q.q.q.q.4.N Z Z Z x = ",
"@ f Z Z Z c ,.w.q.r.q.q.q.q.e.q.q.q.j.i = y.w.q.q.e.q.q.q.q.r.q.q.r.q.t.t.t.f.q.3.x.m # q.r.q.q.r.q.q.q.q.e.q.q.q.q.Z Z Z A c & ",
"% s Z x x c #.-.2.q.q.2.2.-.-.#.#.1.,.; + I 2.-.-.-.-.2.-.-.2.6.2.-.-.-.-.#.#.#.2.3.0 X K 2.-.-.-.-.-.2.2.2.q.2.1.*.x x c Z f % ",
"= = - 4 5 4 5 i 0 - > 0 0 w F W E i w w 9 u i w r w e w r e w ; 4 e i i p W W p w r 0 9 w r e r r e r 0 0 > - 4 i 5 5 5 4 ; = # ",
"= @ > Z Z V ,.r.#.+ a C $.3.n.S.C.q.q.f.h.h.t.r.r.q.3.w.w.e.w.8 ) w.t.t.f.M.C.h.3.q.r.r.q.r.q.r.q.r.r.$.C a + B r.,.Z Z A 8 + = ",
"= @ 0 U c s ,.) 7 @ q s #.4.$.$.;.<.q.q.3.3.3.3.q.2.$.3.,.6.e 3 3.k.r.q.q.3.,.3.q.q.q.q.3.3.q.q.q.q.q.;.C x # 0 t ] N x Z q @ = ",
"= @ 5 A Z c 2.r.#.# , < ) ,.e.6.q.n.q.q.q.q.q.q.q.3.d.h.3.q.q.0 9 v m ,.$.&.;.q.q.3.q.q.q.q.q.q.q.q.e.;.C l @ ) e.3.Z N L q @ = ",
"= @ 0 U A A w.k.3.@ l Y <.k.N.l.j.l.r.r.p.p.r.u.j.r.u.e.p.r.k.e v _ -.w.f.N.j.l.i.i.i.f.r.j.i.i.i.i.j.<.A x + 2.z.w.A A U q @ = ",
"= @ # q q a g H 6 . * 1 q v m v v m m ! ( m m m n b v v b n v $ e ) J n H ! ! n m n J ( m n m v v v v q 1 ; X 5 H v a a q = @ = ",
"% 8 s q q q a !  .@.X.! ! ! b n m m b $ O d m ! ! !  .+. .H / ( m n n n n n n n H b ; X a m ! ! | +.o.! ! [ ( m n d q q q f 0 # ",
"@ x T A A Z 4.l.l.N.l.j.f.f.i.i.f.i.k.i - a.j.j.k.f.l.N.l.j.l.f.i.i.f.i.i.i.i.r.i.k.m # 4.j.j.j.N.N.N.j.j.j.i.i.j.w.A A A T Z = ",
"@ h A N Z Z 3.e.3.3.3.3.4.3.4.3.3.3.w.q @ w -.:.;.;.4.3.3.3.3.3.q.3.q.q.3.q.q.q.3.f.m # q.4.q.3.3.3.3.3.q.3.q.q.q.3.Z x x h 4 = ",
"@ x A Z Z c 3.q.3.q.q.q.q.=.-.>.1.9 i - - B 3.f.q.d.d.3.3.q.q.q.q.q.q.3.q.q.q.q.3.j.m # q.q.q.q.3.q.q.q.q.q.q.q.q.3.Z x c c a % ",
"@ f D Z Z Z ,.q.e.r.r.r.r.q.r.t.f.t.4.4 # 4.r.e.t.q.r.q.r.q.e.r.r.q.q.r.r.3.w.q.r.i.d + ;.r.r.q.r.q.w.r.e.e.r.q.t.<.Z Z Z U x % ",
"= - 4 4 5 4 w i w 9 4 w r i t p i u w > - 0 i i i t t r i t w 4 w r t t u F F p i q 3 = 4 w r r r t r w 0 8 9 w e w 5 4 4 4 - = ",
"- + - x c c *.q.K X , z N 2.7.m.m.s.2.8.e.1.s.0.8.2.2.2.2.q.4.: b 6.5.8.0.m.m.g.8.-.q.e.6.2.2.2.2.2.2.S V q   b q.-.x c c > @ = ",
"= @ 6 D N l N i i @ h A Z I I S S I I $.$.I P I I I $.M B b u 4 B :.I I I S S I S $.$.I $.$.I I K K J N 5 5 @ K :.P Z Z U q @ = ",
"= @ 4 U A Z Z k s @ f D A A C C C C C C C C C C C C C V C V l , l D C C C C C C C C C C V V C C C C V Z N s @ j D A A A U 0 @ = "
};
