/* XPM */
static char *result[] = {
/* columns rows colors chars-per-pixel */
"64 64 180 2 ",
"   c #02050C",
".  c #070A16",
"X  c #040E18",
"o  c #001B1F",
"O  c #141012",
"+  c #3F130F",
"@  c #3F1416",
"#  c #3D1817",
"$  c #3F191A",
"%  c #002729",
"&  c #003827",
"*  c #00332C",
"=  c #003730",
"-  c #430B0F",
";  c #40130E",
":  c #461915",
">  c #4C171B",
",  c #451B19",
"<  c #4A1F1C",
"1  c #4A201D",
"2  c #532E2E",
"3  c #45392A",
"4  c #5B3C3D",
"5  c #69362B",
"6  c #005E1F",
"7  c #00600E",
"8  c #006A0B",
"9  c #007E1E",
"0  c #004F22",
"q  c #004334",
"w  c #004B33",
"e  c #005439",
"r  c #007B2D",
"t  c #00623E",
"y  c #006B3B",
"u  c #4F4231",
"i  c #7B4733",
"p  c #784F37",
"a  c #7A513D",
"s  c #1C4F49",
"d  c #006240",
"f  c #006A5D",
"g  c #2F645E",
"h  c #3F6663",
"j  c #464E55",
"k  c #5E4B5D",
"l  c #614A5D",
"z  c #565C60",
"x  c #634E60",
"c  c #665263",
"v  c #6B5565",
"b  c #725767",
"n  c #755768",
"m  c #775768",
"M  c #765968",
"N  c #7D5B6A",
"B  c #5B6266",
"V  c #506A6C",
"C  c #5F7779",
"Z  c #68696C",
"A  c #656D7C",
"S  c #986B48",
"D  c #88714D",
"F  c #8C7650",
"G  c #A76743",
"H  c #BD754C",
"J  c #865669",
"K  c #855D6C",
"L  c #8B5E6D",
"P  c #965F6F",
"I  c #965E70",
"U  c #8E616F",
"Y  c #85686C",
"T  c #896D6D",
"R  c #92616F",
"E  c #98616F",
"W  c #8A6772",
"Q  c #8D6471",
"!  c #946371",
"~  c #9C6572",
"^  c #956B75",
"/  c #9A6B75",
"(  c #966E79",
")  c #977178",
"_  c #9C7379",
"`  c #9C797F",
"'  c #A36573",
"]  c #AA6675",
"[  c #A76B77",
"{  c #AB6976",
"}  c #B26676",
"|  c #BE6576",
" . c #B26A77",
".. c #B46C79",
"X. c #BB6D7A",
"o. c #A4747A",
"O. c #AE757C",
"+. c #A97B7E",
"@. c #B0767D",
"#. c #BD717C",
"$. c #B3797E",
"%. c #C2774C",
"&. c #C46C7B",
"*. c #C86E7C",
"=. c #C3727D",
"-. c #CB747F",
";. c #C7797F",
":. c #009300",
">. c #448078",
",. c #98866B",
"<. c #B7996B",
"1. c #BA9A6C",
"2. c #A78C70",
"3. c #E6925B",
"4. c #DAA76F",
"5. c #DAB179",
"6. c #FFA567",
"7. c #FFA768",
"8. c #FFAA6A",
"9. c #FFB16F",
"0. c #FCBF7C",
"q. c #FFC47E",
"w. c #6B7685",
"e. c #9C7C81",
"r. c #A07F82",
"t. c #AC7E80",
"y. c #B77D81",
"u. c #BD7C82",
"i. c #CE7580",
"p. c #C37B82",
"a. c #CA7E83",
"s. c #D27681",
"d. c #D87882",
"f. c #7D8285",
"g. c #6A948E",
"h. c #998588",
"j. c #949599",
"k. c #A98687",
"l. c #B58284",
"z. c #BB8485",
"x. c #BD8888",
"c. c #AF9090",
"v. c #B39A98",
"b. c #C28385",
"n. c #CD8386",
"m. c #C78688",
"M. c #CB8688",
"N. c #C58C8B",
"B. c #CD8B8B",
"V. c #D6888A",
"C. c #D28C8C",
"Z. c #CA928E",
"A. c #D2928F",
"S. c #DA928F",
"D. c #CC9591",
"F. c #CC9A94",
"G. c #CD9E98",
"H. c #D49591",
"J. c #DB9592",
"K. c #D69A94",
"L. c #DC9B95",
"P. c #DA9F99",
"I. c #E09D97",
"U. c #E19F98",
"Y. c #CEA29A",
"T. c #D3A59C",
"R. c #DCA299",
"E. c #E2A29A",
"W. c #EAA59C",
"Q. c #E6A89E",
"!. c #D6B0A3",
"~. c #D2B3AB",
"^. c #DFB2A8",
"/. c #E4ACA2",
"(. c #E5B6AC",
"). c #DBC09F",
"_. c #F8CC83",
"`. c #F6CD8A",
"'. c #FCD38C",
"]. c #F9DEB7",
/* pixels */
"M M M v v v v v v v v v v v v v v v v M M v c v v v v v v v v v v v v v v v v v v v b M v v v v v v v v c v v v v v v v v b M M ",
"M b M ~ ' ~ ~ ~ ~ ~ ~ ~ ~ ~ ~ ~ ~ ~ ~ N b ! ~ ~ ~ ~ ~ ~ ~ ~ ~ ~ ~ ~ ~ ~ ~ ~ ~ ~ ' ' K b ! ~ ~ ~ ~ ~ ~ ~ ~ ~ ~ ~ ~ ~ ~ ' ~ N b M ",
"M v ! s.-.-.-.-.-.-.-.-.-.-.-.-.s.s.d.E M i.i.i.i.i.i.i.-.-.-.;.-.-.-.-.-.-.-.-.-.d.~ c U X.X.=.#.i.i.i.i.i.i.*.i.-.-.i.d.~ v M ",
"M v L i.=.-.=.=.;.-.=.=.=.=.;.T 4 4 u u 4 4 4 4 4 4 4 4 4 4 T T 4 4 4 4 4 4 4 4 4 4 u 4 4 4 2 h.=.=.=.=.=.=.-.p.=.;.=.=.i.! v M ",
"M M m L ! ! R R R U L R R R R T ; : : : : : : : : : : : : : : : : : : : , : : : : : : : : : + T ! Q R R L L Q L ! U ! I L M M M ",
"M b K .... ...} { c L &...} } T ; 1 1 1 < < < < 1 < 1 1 1 1 1 1 1 1 1 1 1 1 1 1 1 1 1 1 1 1 + h.{ } }  .X.~ c ! .. . .....L b M ",
"M v ! i.=.=.a.C.p.v { -.;.C.B.T ; 1 1 1 < < < < 1 1 1 1 1 , 1 1 1 1 1 1 1 1 1 1 1 1 1 1 1 1 + T n.n.n.p.=. .v a.S.a.p.&.i.~ v M ",
"M v R -.=.#.C.R.B.b K ] n.K.A.T : 1 1 1 1 < < < 1 < 1 1 1 1 1 1 1 1 1 1 1 1 1 1 1 1 1 1 1 1 # 2.H.K.H.i.' M v o.D.C.| ..p.~ v M ",
"M c ! s.=.;.J.E.Z.M L ] n.L.Q.T + 1 1 1 1 1 < < 1 1 1 1 1 1 1 1 1 1 1 1 1 1 1 1 1 1 1 1 1 1 + T R./.Q.C.-.{ v ^ N.C.X.X.=.' v M ",
"M v m { { { $.b.[ l L } } $.x.T + 1 1 1 : 1 < : 1 1 1 1 1 1 1 1 1 1 1 1 1 1 1 1 1 1 1 1 1 1 + Z y.@.y.[ ] J k @.Z.y.{ {  .N c M ",
"m K ~ L ! R ! ` k._ ^ ` c.k.` T + 1 1 1 1 # G 3.3.3.3.3.4.5.5.5.5.5.5.5.5.5.5.5.5.5.5.5.5.5.5.).e.c.k.` o.r._ / _ ! I ! ! ! K M ",
"v  .s.-.-.-.C.Q.Q.L.L.E.^.(.E.T + 1 1 1 1 # <.6.8.8.8.8.q.'.'.'.'.'.'._.'.'.'.'.'.'.'.`.'.'.'.].Q.(./.U.Q.Q.U.L.U.J.i.i.i.d.#.M ",
"b  .-.#.=.#.A.H.A.H.H.H.Z.A.H.T + 1 1 1 1 # %.8.8.8.8.7.0.`.`.`.`.`.`.`.`.`.`.`._.`.`.`.`.`.`.).D.C.A.A.H.A.H.H.H.H.X.X.X...! M ",
"v ..-.=.#.&.A.K.H.H.H.H.K.B.B.T + 1 1 1 1 + %.6.8.8.8.7.0.`.`._.`._.`.`.`.`.`.`.`.`.`.`.`.`.`.].H.H.H.H.H.H.H.H.K.H.X...X...! m ",
"v  .s.-.-.-.J.E.L.P.L.U.I.I.R.T + 1 1 1 1 1 <.6.8.8.8.7.0.`.`._.`.`.`.`._.`.`.`.`.`.q.`.q.`._.).I.U.L.U.E.L.U.U.U.J.i.-.i.d.=.b ",
"b K ~ ! R ! ~ o._ o.o.o./ _ _ T + 1 1 1 1 # H 9.8.8.8.7.0.'.'.'.'.'.'.`.`.`.`.`.`.'.'.'.'.'.'.]._ _ _ _ _ o.o._ _ ~ ! ! Q ~ L b ",
"M v M ' { ' @.z.[ l J ' { y.y.T ; < 1 1 1 # H 9.8.8.8.9.S u u u 3 3 <.'.`.`.`.`.q.2.u u u u u ,.y.l.l.O.] J l ~ x.@.' { { N v M ",
"M v R s.i.;.J.W.J.v { s.V.R.L.T ; < 1 1 1 # H 8.8.8.8.9.p           ,.q.`.`.`.`.'.F           Z L.L.E.V.-.X.c B.W.J.-.=.s.~ v M ",
"M v ! =... .N._ ^ v Q  .n.H.H.T @ 1 1 1 1 # H 9.8.8.8.9.p   O O O   ,.q.`.'.`.`.'.,.  O O O   Z n.C.H.M.} E v N.L.A.=.X.-.! v M ",
"M v ! -.=.X.Z.Z.y.b K ' n.H.H.T + < < 1 1 $ H 9.8.8.8.9.p   O O O   >.'.`.`.`.`.q.D   O O O O Z M.H.L.x.L L v N.L.H.;.=.i.~ v M ",
"M v N X.X.X.b.H.l.l P | #.D.D.T + 1 1 1 1 # H 9.8.8.8.9.p   O O O   F q.`.`.'.`.q.D   O O O   Z F.D.F.p.&.E k O.K.b.X.X.#.K v M ",
"M M L U ! U ! ( ! U Q ` e.^ ^ T + 1 1 1 1 # H 9.7.8.8.9.p   O O O   ,.'.`.`.`.`.'.,.  O O O   Z e.e.^ ^ ( Q W ! ) R R R U L M M ",
"v  .s.=.=.&.C.K.K.L.J.^./.K.H.T + 1 1 1 1 # H 9.8.6.6.9.i         o a q.`.`.`.'.q.,.          V (.^.H.P.P.H.L.L.K.B.=.X.=.i. .M ",
"b ' #.#.X...B.A.A.K.A.A.Z.H.K.T + 1 1 1 1 # H 9.7.8.7.9.4.1.1.<.<.1.5.'.`.`.`.'.q.5.1.<.<.<.<.).B.A.H.H.H.H.H.H.K.A.=.=.#.=.X.m ",
"b U [ X.X.{ m.C.B.H.H.H.H.H.H.T + 1 1 1 1 # H 9.7.7.8.9.0.'.'.`.q.'.'.`.`.`.`.`.`.'.'.'.'.'.'.].H.H.H.H.H.H.H.H.A.A.=.#.=.;...m ",
"v #.d.-.i.i.J.E.U.U.U.L.L.L.L.T + 1 1 1 1 # H 9.7.7.7.9.0.`.`.`.'.'.`.`.`.`.`.`.`.`.`.`.`.`.q.].U.L.U.L.U.L.U.U.E.L.-.-.-.-.X.m ",
"b ! { ~ ~ ~ o.+.t.z.l.t.t.t.+.T + 1 1 1 1 # H 9.8.7.8.6.0.`.`.`.`.'.`.`.`.`.`.`._.`.`.`.`.`.q.].+.+.+.+.+.l.l.t.+.o.~ ' ' { R b ",
"m v b ~ ~ ~ ' +.~ l N P ~ o.t.T + 1 1 1 , # H 9.8.7.8.6.0.`.`.`.`.q.`.`.`.`.`.`.`.`.`.'.`.`.`.].+.+.+.' ' K l R +.[ ~ ~ ~ m v M ",
"M v ! s.-.-.J.W.C.v ] s.V.U.U.T + 1 1 1 1 # H 9.9.8.8.6._.'.'.'.'.'.'.'.`.'.'.'.'.'.'.'.'.'.'.].S.J.J.V.X.~ v B.W.J.i.-.s.~ v M ",
"M v L i.=.&.A.L.Z.v ] *.n.K.H.T + 1 1 1 1 , 5 i i i i i i l a a a a a p p a a a p l p p p a p 2.B.K.A.i.' K v b.L.A.=.#.-.~ v M ",
"M v ! -.#.=.A.L.D.v { *.n.K.H.T + 1 1 1 1 1 # @ : @ @ : : : : : # : # # + + # # : @ @ @ @ @ - T K.R.R.B.*.X.v W l.C. ...-.~ v b ",
"M v K i.=.=.C.U.M.c E *.n.L.J.T + 1 1 1 1 1 1 1 1 1 1 1 < < < < 1 1 1 1 1 3 # 3 1 1 1 1 1 1 @ T L.A.L.n.*.' c y.E.C.=.=.-.U v M ",
"M b N Q ! ! ! _ Q N Y ) ) ` _ T ; , , , , < , , < > , , , , , , , , < , , < , , , , , , , , - T _ e.e.^ ! W N U ( ! I I L N n n ",
"v ' =... ...u.N.N.G.T.~.~.!.F.T ; 1 1 1 1 1 1 1 1 1 1 1 1 1 1 1 1 1 1 1 1 1 1 1 1 < 1 1 1 1 : T F.~.~.F.F.Y.A.Z.N.z.} } ..p.] b ",
"b  .-.=.=.=.H.K.K.H.A.S.Z.H.J.T @ > > > > > > > > > > > > > > > > > > > > > > > > > > > > > - T H.A.B.H.H.H.H.J.L.H.i.u.&.p. .n ",
"b { -.=.=.X.C.K.H.C z z C z C s w w w w w w 6 8 8 8 8 8 8 8 8 8 8 8 8 8 8 8 8 8 8 8 8 8 8 8 8 d Z Z B Z Z C H.H.K.H...] =.{ K n ",
"v ..i.;.=.=.J.L.L.j           q d d d d d d 9 :.:.:.:.:.:.:.:.:.:.:.:.:.:.:.:.:.:.:.:.:.:.:.:.7           w.L.L.L.J.i.&.i.i.X.m ",
"b ~ X.{ { { $.z.x.j   X X X . q d d d d d d 9 :.:.:.:.:.:.:.:.:.:.:.:.:.:.:.:.:.:.:.:.:.:.:.:.7 . X X X   w.N.x.z.t.{ { { ..~ b ",
"m b m I ! P ! _ Q j   X X X . q d d d d t t r :.:.:.:.:.:.:.:.:.:.:.:.:.:.:.:.:.:.:.:.:.:.:.:.7 . X X X   w.v L _ ~ U ! ! m b M ",
"M v U i.-.-.J.W.C.j   X X X . q d d d d t t 9 :.:.:.:.:.:.:.:.:.:.:.:.:.:.:.:.:.:.:.:.:.:.:.:.7 . X X X   w.c m.W.J.i.i.s.~ v M ",
"M v ! i.#.&.H.R.A.j   X X X . q d d d d d d r :.:.:.:.:.:.:.:.:.:.:.:.:.:.:.:.:.:.:.:.:.:.:.:.7 . X X X   w.v N.P.H.=.=.-.~ v M ",
"b v ! i.X.{ n.x.W j   X X X . q d d d d d d 9 :.:.:.:.:.:.:.:.:.:.:.:.:.:.:.:.:.:.:.:.:.:.:.:.7 . X X X   w.c N.L.H.=.X.-.~ v M ",
"M v Q i.i.&.S.I.u.j   X X X . q e e e e e e r r r r r r r r r r r r r r r r r r r r r r r r r 0 . X X X   w.c M.W.J.i.-.s.~ v M ",
"M b m I ! R / o.! j   X X X . * = q q q = q e t t t t t t t t t t d d d t t t t t t t t t t y q . X X X   w.c Q o.~ L ~ R M v M ",
"b ~ ..{ { ' @.l.z.j   X X X . * q q q q q q d d t t t t t t t t t t t t t t t t t t t t t t t q . X X X   w.N.z.l.$.[ { { ..~ M ",
"v ..d.=.=.-.J.E.L.j   X X . . * s q q = q q e d t t t t t t t t t t t t t t t t t t t t t t e q . X X X   w.L.J.L.H.-.=.-.-.X.m ",
"b K ' -.X.{ n.B.B.j   X X X . * = q q s q q e d t t t t t t t t t t t t t t t t t t t t t t t q . X X X   w.H.H.K.A.=.#.&.=...M ",
"v { =.=.=.X.C.H.A.j           = q q q q q q e d t t t t t t t t t t t t t t t t t t t t t t t q           w.H.H.L.H.=.=.=.;.X.m ",
"b ' ;.....X.b.B.Z.C f.f.C f.C s * = * * * = e e e e e e e e e e e e e e e e e e e e e e e e e f C C C C C C H.B.N.b.....X.&.[ b ",
"M M K L R U R ) Q N U ! ! ^ e.V o % % % % % = q q q q q q q q q q q q q q q q q q q q q q q & >.( ( ( ! Q W N Q _ ! L I Q K M M ",
"M v K =.=.&.C.L.b.v ' *.a.J.!.V o % % % % % = q q q q q q q q q q q q q q q q q q q q q q q & >.K.L.J.n.&.' c u.P.C.=.&.-.U v b ",
"M v R s.X.] C.x.W v E ] m.H.n.V o % % % % % = q q q q q q q q q q q q q q q q q q q q q q q & >.H.H.K.B.&...v ! ^ x.u...=.~ v M ",
"M v ! -.X.X.B.K.b.b L P y.V.K.V o % % % % % = q q q q q q q q q q q q q q q q q q q q q q q & >.H.H.K.B.&. .c z.H.H.=.X.i.~ v M ",
"M v ! s.i.-.J.W.A.v } d.V././.V o % % % % % = q q q q q q q q q q q q q q q q q q q q q q q & >.I.L.E.S.s. .c N.W.J.-.-.s.~ v M ",
"M v m ~ ' ~ [ +.E l J P ~ o.+.V o % % % % % * & & & & & & & & & & & & & & & & & & & q q q q & >.o.o.o.' I J x ! t.o.~ ' ~ m v M ",
"b Q ' ' ~ ~ [ k.c.Y.v.k.k.t.+.V . o o o o . h g.g.g.g.g.g.g.g.g.g.g.g.g.g.g.g.g.g.g . & & & . B v.v.v.k.k.x.l.t.+.o.~ ' ~ [ ! b ",
"v ..s.-.-.-.J.Q.R./.Q.P.U.U.I.V   X X X X   h E.E.E././.Q.P.E.E.I.I.E.I.I.E.I.I.E.f.  X X X   z /././.U.U.E.I.P.U.I.i.-.-.s.=.m ",
"b { -.#.=.#.C.H.H.H.A.H.H.H.H.V   X X X X   j.n.B.B.H.Z.A.H.S.H.H.A.H.H.A.A.A.A.A.f.  X X X   B A.A.A.H.H.A.H.H.H.C.=. ...{ U M ",
"v ..-.=.X.=.A.H.H.H.H.H.H.n.B.V   X X X X   j.P.H.R.P.A.H.H.H.H.H.H.H.H.A.H.H.H.S.f.  X X X   B H.H.H.H.H.H.H.H.H.A.=.X.X.X.' M ",
"v [ i.=.=.&.C.L.K.L.L.L.L.H.L.V             j.K.K.K.J.L.H.K.H.L.L.H.H.K.K.J.H.H.I.w.          B J.H.J.K.L.L.L.K.L.C.=.;.;.i.X.b ",
"M N U U ! U ^ ) ! ^ Q ^ ^ ^ ^ A A A A A A A A _ _ ^ ^ ( ^ ( ^ ! ! / ( ( _ ,.e.e.) A A A A A A A ^ ^ ^ ^ ^ ! Q ^ / ^ R R L L N M ",
"M v N ..X.X.m.K.u.l L } u.Z.G.~.~.G.Z.H.K.Z.Y.G.F.D.Z.D.Z.H.S.K t.D.F.F.G.~.~.T.F.Z.D.K.D.Z.Z.Z.D.Z.D.p.&.E k O.K.N.....X.K c M ",
"M v R -.X. .#./ _ v { -.=.a.n.;.p.a.a.a.a.a.a.a.a.a.a.$.p.o.( Q u.a.p.i.p.i.p.a.a.a.a.a.a.a.a.n.p.u.u.u.L ! v u.V.;.=.=.i.~ v M ",
"M v R d.i.=.=.X.{ v [ d.-.*.*.*.*.*.*.-.&.&.*.*.&.*.*.&.&.&...K } s.&.i.&.&.i.i.*.*.*.-.&.&.*.&.&.&.&.&.=.' v } i.&.-.i.s.~ v M "
};
