/* XPM */
static char *result[] = {
/* columns rows colors chars-per-pixel */
"64 64 39 1 ",
"  c #3F3551",
". c #413551",
"X c #423651",
"o c #433651",
"O c #443751",
"+ c #493651",
"@ c #4A3651",
"# c #583751",
"$ c #553D53",
"% c #663850",
"& c #5C4A57",
"* c #654255",
"= c #674355",
"- c #6F4656",
"; c #9E335D",
": c #A73F4E",
"> c #A2345C",
", c #AB3759",
"< c #B73857",
"1 c #814D58",
"2 c #BD414D",
"3 c #BD635E",
"4 c #C9424D",
"5 c #D14E52",
"6 c #C0515F",
"7 c #DA5652",
"8 c #D85A57",
"9 c #DA5F59",
"0 c #F15553",
"q c #DE655C",
"w c #DF665C",
"e c #CF5F61",
"r c #D66461",
"t c #E77462",
"y c #FD806D",
"u c #FFA37E",
"i c #FFCB96",
"p c #FFEBB6",
"a c #FFFAD5",
/* pixels */
"&                                                              &",
" uipappiu yuiipappipapipiiuy yuiapipiiuy yuiipaapppiuy uippapiu ",
" iiiiiiii yiiiiiiiiiiiiiiiiy yiiiiiiiiiy yiiiiiiiiiiiy iiiiiiii ",
" iiiiiiii yiiiiiiiiiiiiiiiiy yiiiiiiiiiy yiiiiiiiiiiiy iiiiiiii ",
" iiiiiiii yuiiiiiiiiiiiiiiuy yuiiiiiiiuy yuiiiiiiiiiuy iiiiiiii ",
" uiiiiiiu yyuiiiiiiiiiiiiuyy yyuiiiiiuyy yyuiiiiiiiuyy uiiiiiiu ",
" yuiiiiuy yyyyyyyyyyyyyyyyyy yyyyyyyyyyy yyyyyyyyyyyyy yuiiiiuy ",
" yyyyyyyy 0yyyyyyyyyyyyyyyy0 0yyyyyyyyy0 0yyyyyyyyyyy0 yyyyyyyy ",
" 0yyyyyy0                                              0yyyyyy0 ",
"                                                                ",
" yyyyyy0         ;<444<; ;<444<; ;<444<; ;<444<;        0yyyyyy ",
" uiiuyyy  ;4444; <44444< <44444< <44444< <44444< ;444;  yyyuiiu ",
" iiiiuyy                                                yyuiiii ",
" iiiiiyy    ;tttttt4 4tttt4 4tttttt4 4tttt4 4ttttt7;    yyiiiip ",
" piiiiyy    4ttttttt tttttt tttttttt tttttt ttttttt4    yyiiiip ",
" piiiiyy    ;tttttt4 4tttt4 4tttttt4 4tttt4 4ttttt7;    yyiiiii ",
" aiiiiyy                                                yyiiiip ",
" aiiiiyy  ;447t4 4tt                        ttt4 4744;  yyiiiia ",
" piiiiyy  444ttt ttt 4tttt4 4tttttt4 4tttt4 tttt tt444  yyiiiip ",
" iiiiiyy  ;447t4 4tt tttttt tttttttt tttttt ttt4 4744;  yyiiiii ",
" iiiiuyy             4tttt4 4tttttt4 4tttt4             yyuiiii ",
" uiiuyyy    ;7tttt7;  ;444;  ;44444;        ;7tttt7;    yyyuiiu ",
" yyyyyy0    4tttttt4                        4tttttt4    0yyyyyy ",
"            ;7tttt7; 4tttt4 4tttttt4 4tttt4 ;7tttt7;            ",
" yyyyyy0             tttttt tttttttt tttttt             0yyyyyy ",
" uiiuyyy  ;447t4 474 4tttt4 4tttttt4 4tttt4 44t4 4744;  yyyuiiu ",
" iiiiuyy  444ttt tt4                        44tt tt444  yyuiiii ",
" iiiiiyy  ;447t4 474 4tttt4 4tttttt4 4tttt4 44t4 4744;  yyiiiip ",
" piiiiyy             tttttt tttttttt tttttt             yyiiiia ",
" iiiiiyy    ;ttttt7; 4tttt4 4tttttt4 4tttt4 ;7tttt7;    yyiiiia ",
" piiiiyy    4tttttt4                        4tttttt4    yyiiiip ",
" piiiiyy    ;ttttt7; 4tttt4 4tttttt4 4tttt4 ;7tttt7;    yyiiiii ",
" iiiiiyy             tttttt tttttttt tttttt             yyiiiip ",
" piiiiyy  ;447t4 744 4tttt4 4tttttt4 4tttt4 47t4 4744;  yyiiiip ",
" aiiiiyy  444ttt t44                        4ttt tt444  yyiiiii ",
" aiiiiyy  ;447t4 744 4tttt4 4tttttt4 4tttt4 47t4 4744;  yyiiiip ",
" piiiiyy             tttttt tttttttt tttttt             yyiiiii ",
" iiiiuyy   ; 7tttt7; 4tttt4 4tttttt4 4tttt4 ;7tttt7;    yyuiiii ",
" uiiuyyy   4 tttttt4                        4tttttt4    yyyuiiu ",
" yyyyyy0   ; 7tttt7; 4tttt4 4tttttt4 4tttt4 ;7tttt7;    0yyyyyy ",
"                     tttttt tttttttt tttttt                     ",
" yyyyyy0  ;447t4     4tttt4 4tttttt4 4tttt4 47t4 4744;  0yyyyyy ",
" uiiuyyy  444ttt                          +@4ttt tt444  yyyuiiu ",
" iiiiuyy  ;447t4     #*-=$>2458e3rw4%4q961,:47t4 4744;  yyuiiii ",
" iiiiiyy             . ..     .XoOoX X.                 yyiiiii ",
" piiiiyy    ; 7ttttt4 4tttt4 4tttttt4 4tttt4 4tttt7;    yyiiiip ",
" aiiiiyy    4 ttttttt tttttt tttttttt tttttt tttttt4    yyiiiia ",
" piiiiyy    ; 7ttttt4 4tttt4 4tttttt4 4tttt4 4tttt7;    yyiiiip ",
" iiiiiyy                                                yyiiiii ",
" piiiiyy  ;447t4 4ttttt4 4ttttt4 4ttttt4 4ttttt4 4744;  yyiiiip ",
" piiiiyy  444ttt ttttttt ttttttt ttttttt ttttttt tt444  yyiiiii ",
" iiiiuyy  ;447t4 4ttttt4 4ttttt4 4ttttt4 4ttttt4 4744;  yyuiiii ",
" uiiuyyy                                                yyyuiiu ",
" yyyyyy0    ;444444;        ;444444;        ;444444;    0yyyyyy ",
"                                                                ",
" 0yyyyyy0                                              0yyyyyy0 ",
" yyyyyyyy 0yyyyyyyyyyy0 0yyyyyyyyy0 0yyyyyyyyyyyyyyyy0 yyyyyyyy ",
" yuiiiiuy yyyyyyyyyyyyy yyyyyyyyyyy yyyyyyyyyyyyyyyyyy yuiiiiuy ",
" uiiiiiiu yyuiiiiiiiuyy yyuiiiiiuyy yyuiiiiiiiiiiiiuyy uiiiiiiu ",
" iiiiiiii yuiiiiiiiiiuy yuiiiiiiiuy yuiiiiiiiiiiiiiiuy iiiiiiii ",
" iiiiiiii yiiiiiiiiiiiy yiiiiiiiiiy yiiiiiiiiiiiiiiiiy iiiiiiii ",
" iiiiiiii yiiiiiiiiiiiy yiiiiiiiiiy yiiiiiiiiiiiiiiiiy iiiiiiii ",
" uipappiu yuiipipapiiuy yuiipipaiuy yuiipipapippapiiuy uippapiu ",
"&                                                              &"
};
